<svg aria-hidden="true" style="position: absolute; width: 0; height: 0; overflow: hidden;" version="1.1" xmlns="http://www.w3.org/2000/svg" xmlns:xlink="http://www.w3.org/1999/xlink">
<defs>
<symbol id="icon-1" viewBox="0 0 32 32">
<path fill="#edf1fd" style="fill: var(--color1, #edf1fd)" d="M32 15.961c0 8.815-7.163 15.961-16 15.961s-16-7.146-16-15.961c0-8.815 7.163-15.961 16-15.961s16 7.146 16 15.961z"></path>
<path fill="#5d8bff" style="fill: var(--color2, #5d8bff)" d="M23.492 14.448c-0.077-0.135-0.25-0.182-0.385-0.105l-1.885 1.077-1.081-0.216v-0.898h-0.847v-0.565c0-0.032-0.004-0.063-0.005-0.094l1.81-0.776c0.104-0.044 0.171-0.147 0.171-0.259v-3.106h1.694c0.156 0 0.282-0.127 0.282-0.282s-0.127-0.282-0.282-0.282h-1.976c-0.156 0-0.282 0.127-0.282 0.282v3.202l-1.481 0.634c-0.219-1.068-0.944-1.952-1.91-2.396 0-0.009 0.003-0.020 0.003-0.029 0-0.315-0.107-0.603-0.282-0.838 0.012-0.125 0.175-1.703 1.129-1.703 0.156 0 0.282-0.127 0.282-0.282s-0.127-0.282-0.282-0.282c-1.127 0-1.512 1.202-1.637 1.845-0.188-0.093-0.398-0.151-0.622-0.151s-0.434 0.057-0.622 0.151c-0.125-0.643-0.51-1.845-1.637-1.845-0.156 0-0.282 0.127-0.282 0.282s0.127 0.282 0.282 0.282c0.95 0 1.117 1.576 1.129 1.703-0.175 0.235-0.282 0.523-0.282 0.838 0 0.009 0.003 0.019 0.003 0.029-0.967 0.444-1.692 1.328-1.91 2.396l-1.481-0.634v-3.202c0-0.156-0.127-0.282-0.282-0.282h-1.976c-0.156 0-0.282 0.127-0.282 0.282s0.127 0.282 0.282 0.282h1.694v3.106c0 0.113 0.067 0.215 0.171 0.259l1.81 0.776c-0.001 0.031-0.005 0.062-0.005 0.094v0.565h-0.847v0.898l-1.081 0.216-1.885-1.077c-0.135-0.077-0.308-0.030-0.385 0.105s-0.030 0.308 0.105 0.385l1.976 1.129c0.043 0.025 0.091 0.037 0.14 0.037 0.018 0 0.037-0.002 0.055-0.006l1.074-0.214v1.782l-1.592 1.327c-0.098 0.081-0.129 0.218-0.076 0.334l1.352 2.974-1.058 1.851c-0.077 0.135-0.031 0.308 0.105 0.385 0.044 0.025 0.092 0.037 0.14 0.037 0.098 0 0.193-0.051 0.245-0.142l1.129-1.976c0.045-0.079 0.049-0.174 0.012-0.257l-1.323-2.91 1.066-0.888v1.374c0 1.25 0.547 2.372 1.412 3.148v-7.948h0.565v8.376c0.346 0.219 0.725 0.389 1.129 0.501v-8.878h0.565v8.993c0.185 0.025 0.373 0.042 0.565 0.042s0.38-0.017 0.565-0.042v-8.993h0.565v8.878c0.404-0.112 0.783-0.282 1.129-0.501v-8.376h0.565v7.948c0.864-0.776 1.412-1.898 1.412-3.148v-1.374l1.066 0.888-1.323 2.91c-0.038 0.083-0.033 0.178 0.012 0.257l1.129 1.976c0.052 0.091 0.147 0.142 0.245 0.142 0.047 0 0.096-0.012 0.14-0.037 0.136-0.077 0.182-0.25 0.105-0.385l-1.058-1.851 1.352-2.974c0.053-0.116 0.021-0.252-0.076-0.334l-1.592-1.327v-1.782l1.074 0.215c0.018 0.004 0.037 0.006 0.055 0.006 0.049 0 0.097-0.013 0.14-0.037l1.976-1.129c0.136-0.077 0.182-0.25 0.105-0.385zM18.729 14.306h-5.647v-0.565c0-1.163 0.707-2.164 1.714-2.596l0.083-0.032c0.009-0.003 0.019-0.007 0.028-0.010 0.077-0.029 0.156-0.055 0.234-0.078 0.006-0.002 0.012-0.003 0.018-0.005 0.077-0.021 0.153-0.039 0.23-0.054 0.016-0.003 0.031-0.004 0.047-0.007 0.069-0.012 0.139-0.022 0.209-0.029 0.030-0.003 0.062-0.003 0.092-0.005 0.112-0.007 0.223-0.007 0.335 0 0.030 0.002 0.061 0.002 0.092 0.005 0.070 0.007 0.139 0.017 0.209 0.029 0.016 0.003 0.032 0.005 0.047 0.007 0.077 0.015 0.154 0.033 0.23 0.054 0.006 0.002 0.012 0.003 0.018 0.005 0.079 0.022 0.157 0.048 0.234 0.078l0.028 0.010 0.083 0.032c1.007 0.432 1.714 1.432 1.714 2.596v0.565h-0z"></path>
</symbol>
<symbol id="icon-2" viewBox="0 0 32 32">
<path fill="#edf1fd" style="fill: var(--color1, #edf1fd)" d="M32 15.961c0 8.815-7.163 15.961-16 15.961s-16-7.146-16-15.961c0-8.815 7.163-15.961 16-15.961s16 7.146 16 15.961z"></path>
<path fill="#5d8bff" style="fill: var(--color2, #5d8bff)" d="M20.231 13.542c0.096-0.036 0.165-0.12 0.182-0.222l0.247-1.483h0.905c0.159 0 0.287-0.129 0.287-0.287s-0.128-0.287-0.287-0.287h-1.148c-0.14 0-0.26 0.101-0.283 0.24l-0.26 1.559-1.776 0.666c-0.049-0.313-0.191-0.748-0.566-1.156l-0.138-1.099c-0.059-0.469-0.327-0.866-0.701-1.108 0.060-0.382 0.403-2.261 1.361-2.261 0.015 0 0.032 0.001 0.047 0.001 0.163 0.009 0.295-0.11 0.305-0.268s-0.11-0.295-0.268-0.305c-0.031-0.002-0.061-0.003-0.090-0.003-1.332 0-1.785 1.943-1.901 2.614-0.094-0.018-0.191-0.028-0.29-0.028h-0.067c-0.099 0-0.196 0.010-0.29 0.028-0.117-0.671-0.569-2.614-1.901-2.614-0.029 0-0.059 0.001-0.090 0.003-0.158 0.010-0.278 0.147-0.268 0.305s0.139 0.277 0.305 0.268c0.015-0.001 0.031-0.001 0.047-0.001 0.955 0 1.301 1.88 1.361 2.261-0.374 0.242-0.643 0.639-0.701 1.108l-0.138 1.099c-0.375 0.409-0.516 0.843-0.566 1.156l-1.776-0.666-0.26-1.559c-0.023-0.138-0.143-0.24-0.283-0.24h-1.148c-0.159 0-0.287 0.129-0.287 0.287s0.129 0.287 0.287 0.287h0.905l0.247 1.483c0.017 0.101 0.086 0.186 0.182 0.222l2.11 0.792v1.811h-1.435c-0.067 0-0.132 0.024-0.184 0.067l-1.723 1.436c-0.122 0.101-0.138 0.282-0.037 0.404 0.057 0.068 0.138 0.103 0.221 0.103 0.065 0 0.13-0.022 0.184-0.067l1.643-1.369h1.331v1.014l-1.619 1.35c-0.074 0.062-0.112 0.156-0.102 0.252l0.277 2.491-1.102 1.928c-0.079 0.138-0.031 0.313 0.107 0.392 0.045 0.026 0.094 0.038 0.142 0.038 0.1 0 0.197-0.052 0.249-0.145l1.148-2.010c0.030-0.053 0.043-0.114 0.036-0.174l-0.27-2.431 1.134-0.945c0.013 3.443 1.705 5.777 1.778 5.875 0.054 0.073 0.14 0.117 0.231 0.117h0.574c0.091 0 0.177-0.043 0.231-0.117 0.072-0.098 1.765-2.432 1.777-5.875l1.134 0.945-0.27 2.431c-0.007 0.060 0.006 0.121 0.036 0.174l1.148 2.010c0.053 0.093 0.15 0.145 0.25 0.145 0.048 0 0.097-0.012 0.142-0.038 0.138-0.079 0.186-0.254 0.107-0.392l-1.102-1.928 0.276-2.491c0.011-0.096-0.027-0.19-0.101-0.252l-1.62-1.35v-1.014h1.332l1.643 1.369c0.054 0.045 0.119 0.067 0.183 0.067 0.082 0 0.164-0.035 0.221-0.103 0.101-0.122 0.085-0.303-0.037-0.404l-1.723-1.436c-0.052-0.043-0.117-0.067-0.184-0.067h-1.436v-1.811l2.111-0.792zM15.824 12.412h-1.11l0.108-0.868c0.061-0.487 0.477-0.855 0.968-0.855h0.067c0.491 0 0.907 0.367 0.968 0.855l0.108 0.868h-1.11z"></path>
</symbol>
<symbol id="icon-3" viewBox="0 0 32 32">
<path fill="#edf1fd" style="fill: var(--color1, #edf1fd)" d="M32 15.961c0 8.815-7.163 15.961-16 15.961s-16-7.146-16-15.961c0-8.815 7.163-15.961 16-15.961s16 7.146 16 15.961z"></path>
<path fill="#5d8bff" style="fill: var(--color2, #5d8bff)" d="M21.468 14.791l-0.755-0.252-1.076-1.614c-0.041-0.062-0.106-0.106-0.18-0.12l-1.375-0.275-0.531-0.266c-0.008-0.004-0.016-0.003-0.025-0.007-0.097-0.141-0.229-0.263-0.389-0.359 0.143-0.141 0.239-0.316 0.271-0.511h1.334l1.054 0.791c0.050 0.037 0.109 0.056 0.169 0.056 0.035 0 0.071-0.006 0.105-0.020l1.412-0.565c0.145-0.058 0.215-0.222 0.157-0.367s-0.222-0.215-0.367-0.157l-1.264 0.506-1.002-0.752c-0.049-0.037-0.108-0.056-0.169-0.056h-1.525c-0.040-0.073-0.090-0.14-0.149-0.201 0.494-0.247 0.826-0.697 0.826-1.21 0-0.013-0.002-0.026-0.002-0.039 0.487-0.126 0.849-0.565 0.849-1.090 0-0.623-0.506-1.129-1.129-1.129-0.156 0-0.282 0.127-0.282 0.282s0.127 0.282 0.282 0.282c0.311 0 0.565 0.253 0.565 0.565 0 0.267-0.186 0.489-0.435 0.548-0.267-0.489-0.857-0.83-1.542-0.83s-1.275 0.341-1.542 0.83c-0.249-0.059-0.435-0.282-0.435-0.548 0-0.311 0.253-0.565 0.565-0.565 0.156 0 0.282-0.127 0.282-0.282s-0.126-0.282-0.282-0.282c-0.623 0-1.129 0.507-1.129 1.129 0 0.525 0.363 0.965 0.849 1.090-0 0.013-0.002 0.026-0.002 0.039 0 0.514 0.332 0.963 0.826 1.21-0.058 0.062-0.109 0.128-0.149 0.201h-1.525c-0.061 0-0.121 0.020-0.169 0.056l-1.002 0.752-1.264-0.506c-0.146-0.058-0.309 0.013-0.367 0.157s0.013 0.309 0.157 0.367l1.412 0.565c0.034 0.014 0.070 0.020 0.105 0.020 0.060 0 0.12-0.019 0.169-0.056l1.054-0.791h1.334c0.032 0.195 0.129 0.37 0.271 0.511-0.16 0.096-0.292 0.219-0.389 0.359-0.008 0.003-0.017 0.003-0.025 0.007l-0.531 0.266-1.374 0.275c-0.073 0.014-0.138 0.058-0.18 0.12l-1.076 1.614-0.755 0.252c-0.148 0.049-0.228 0.209-0.179 0.357 0.040 0.118 0.15 0.193 0.268 0.193 0.029 0 0.060-0.005 0.089-0.014l0.847-0.282c0.060-0.020 0.111-0.059 0.146-0.111l1.064-1.597 1.297-0.259c0.025-0.005 0.049-0.013 0.071-0.024l0.177-0.089c0.027 0.145 0.087 0.279 0.176 0.401h-0.197c-0.623 0-1.129 0.507-1.129 1.129 0 0.234 0.072 0.452 0.194 0.632-0.44 0.154-0.759 0.569-0.759 1.062 0 0.234 0.072 0.452 0.194 0.632-0.44 0.154-0.759 0.57-0.759 1.062 0 0.339 0.153 0.64 0.39 0.847-0.237 0.207-0.39 0.508-0.39 0.847 0 0.492 0.319 0.907 0.759 1.062-0.123 0.18-0.194 0.398-0.194 0.632 0 0.492 0.319 0.907 0.759 1.062-0.123 0.18-0.194 0.398-0.194 0.632 0 0.623 0.507 1.129 1.129 1.129h2.824c0.623 0 1.129-0.507 1.129-1.129 0-0.234-0.072-0.452-0.194-0.632 0.44-0.154 0.759-0.57 0.759-1.062 0-0.234-0.072-0.452-0.194-0.632 0.44-0.154 0.759-0.57 0.759-1.062 0-0.339-0.153-0.64-0.39-0.847 0.237-0.207 0.39-0.508 0.39-0.847 0-0.492-0.319-0.907-0.759-1.062 0.123-0.18 0.194-0.398 0.194-0.632 0-0.492-0.319-0.907-0.759-1.062 0.122-0.18 0.194-0.398 0.194-0.632 0-0.623-0.507-1.129-1.129-1.129h-0.197c0.089-0.121 0.149-0.256 0.176-0.401l0.177 0.089c0.022 0.011 0.046 0.019 0.071 0.024l1.297 0.259 1.064 1.597c0.035 0.052 0.086 0.091 0.146 0.111l0.847 0.282c0.030 0.010 0.060 0.014 0.089 0.014 0.118 0 0.228-0.075 0.268-0.193 0.049-0.148-0.031-0.308-0.179-0.357zM17.708 23.529h-2.824c-0.311 0-0.565-0.253-0.565-0.565s0.253-0.565 0.565-0.565h2.824c0.311 0 0.565 0.253 0.565 0.565s-0.253 0.565-0.565 0.565zM19.402 19.576c0 0.311-0.253 0.565-0.565 0.565h-5.082c-0.311 0-0.565-0.253-0.565-0.565s0.253-0.565 0.565-0.565h5.082c0.311 0 0.565 0.253 0.565 0.565zM17.708 15.624h0.565c0.311 0 0.565 0.253 0.565 0.565s-0.253 0.565-0.565 0.565h-3.953c-0.311 0-0.565-0.253-0.565-0.565s0.253-0.565 0.565-0.565h3.388z"></path>
</symbol>
<symbol id="icon-4" viewBox="0 0 32 32">
<path fill="#edf1fd" style="fill: var(--color1, #edf1fd)" d="M32 15.961c0 8.815-7.163 15.961-16 15.961s-16-7.146-16-15.961c0-8.815 7.163-15.961 16-15.961s16 7.146 16 15.961z"></path>
<path fill="#5d8bff" style="fill: var(--color2, #5d8bff)" d="M24.401 13.082c-0.042-0.167-0.212-0.268-0.379-0.227l-2.429 0.608-1.476-0.295c-0.256-0.375-0.566-0.687-0.9-0.946h1.541l1.952-1.301c0.143-0.096 0.182-0.29 0.086-0.433s-0.289-0.183-0.433-0.086l-1.795 1.196h-2.384c-0.346-0.163-0.685-0.285-0.99-0.375 0.108-0.077 0.205-0.164 0.289-0.259 0.019 0.003 0.037 0.010 0.056 0.010 0.015 0 0.029-0.001 0.045-0.003l2.318-0.331 1.639-2.294c0.1-0.141 0.068-0.335-0.073-0.436s-0.335-0.068-0.436 0.073l-1.483 2.077-1.727 0.247c0.018-0.087 0.030-0.177 0.030-0.268 0-0.015-0.002-0.029-0.003-0.044 0.538-0.139 0.939-0.624 0.939-1.205 0-0.689-0.56-1.249-1.249-1.249-0.172 0-0.312 0.14-0.312 0.312s0.14 0.312 0.312 0.312c0.344 0 0.624 0.28 0.624 0.624 0 0.294-0.205 0.54-0.48 0.606-0.295-0.541-0.947-0.918-1.705-0.918s-1.41 0.377-1.705 0.918c-0.275-0.066-0.481-0.312-0.481-0.606 0-0.344 0.28-0.624 0.624-0.624 0.172 0 0.312-0.14 0.312-0.312s-0.14-0.312-0.312-0.312c-0.689 0-1.249 0.56-1.249 1.249 0 0.581 0.401 1.067 0.939 1.205-0.001 0.015-0.003 0.029-0.003 0.044 0 0.092 0.012 0.181 0.030 0.268l-1.727-0.247-1.483-2.077c-0.101-0.141-0.296-0.173-0.436-0.073s-0.173 0.295-0.073 0.436l1.639 2.294 2.318 0.331c0.015 0.002 0.030 0.003 0.045 0.003 0.020 0 0.038-0.007 0.056-0.010 0.085 0.095 0.181 0.183 0.289 0.259-0.305 0.091-0.644 0.213-0.99 0.375h-2.384l-1.795-1.196c-0.144-0.096-0.337-0.057-0.433 0.086s-0.057 0.337 0.086 0.433l1.952 1.301h1.541c-0.334 0.259-0.644 0.571-0.9 0.946l-1.476 0.295-2.429-0.608c-0.166-0.041-0.337 0.060-0.379 0.227s0.060 0.337 0.227 0.379l2.498 0.624c0.025 0.006 0.050 0.009 0.076 0.009 0.020 0 0.041-0.002 0.061-0.006l1.039-0.208c-0.057 0.142-0.11 0.288-0.152 0.444l-0.214 1.79 0.002 0.003-0.322 2.718c-0.131 1.113 0.109 2.206 0.676 3.079 0.643 0.991 1.951 2.172 4.531 2.172s3.887-1.181 4.531-2.172c0.567-0.873 0.806-1.967 0.676-3.079l-0.525-4.464-0.009-0.046c-0.042-0.155-0.095-0.302-0.152-0.444l1.039 0.208c0.020 0.004 0.041 0.006 0.061 0.006 0.026 0 0.051-0.003 0.076-0.009l2.498-0.624c0.167-0.042 0.269-0.211 0.227-0.379zM15.98 18.153c-1.82 0-3.472-0.847-4.242-2.167l0.179-1.519c0.672-2.38 3.725-2.826 4.064-2.869 0.34 0.042 3.39 0.483 4.063 2.869l0.179 1.519c-0.77 1.319-2.422 2.167-4.242 2.167z"></path>
</symbol>
<symbol id="icon-5" viewBox="0 0 32 32">
<path fill="#edf1fd" style="fill: var(--color1, #edf1fd)" d="M31.628 15.95c0 8.713-7.080 15.776-15.814 15.776s-15.814-7.063-15.814-15.776c0-8.713 7.080-15.776 15.814-15.776s15.814 7.063 15.814 15.776z"></path>
<path fill="#5d8bff" style="fill: var(--color2, #5d8bff)" d="M22.405 23.459l-1.876-1.072-0.822-3.564c-0.017-0.072-0.061-0.135-0.124-0.175l-2.776-1.766 2.372-0.264c0.083-0.009 0.158-0.055 0.205-0.124l1.050-1.575h1.832c0.157 0 0.283-0.127 0.283-0.283s-0.127-0.283-0.283-0.283h-1.984c-0.095 0-0.183 0.047-0.236 0.126l-1.060 1.591-2.279 0.253 0.059-0.325 2.828-1.98c0.076-0.053 0.121-0.14 0.121-0.232v-2.107l1.28-0.768c0.134-0.081 0.178-0.255 0.097-0.389s-0.254-0.178-0.389-0.097l-1.417 0.85c-0.085 0.051-0.137 0.143-0.137 0.243v2.12l-2.238 1.566 0.249-1.368c0.001-0.008-0.001-0.015-0.001-0.023 0.001-0.010 0.006-0.018 0.006-0.028v-0.567c0-0.461-0.224-0.867-0.566-1.126 0.013-0.138 0.179-1.708 1.133-1.708 1.473 0 1.933-2.503 1.98-2.788 0.026-0.154-0.078-0.3-0.233-0.326s-0.301 0.079-0.326 0.233c-0.1 0.6-0.576 2.314-1.421 2.314-1.241 0-1.585 1.451-1.672 2.021-0.101-0.023-0.204-0.037-0.312-0.037s-0.211 0.014-0.312 0.037c-0.087-0.57-0.431-2.021-1.672-2.021-0.847 0-1.313-1.671-1.421-2.314-0.026-0.154-0.172-0.258-0.326-0.233s-0.258 0.172-0.233 0.326c0.048 0.285 0.507 2.788 1.98 2.788 0.949 0 1.12 1.569 1.133 1.708-0.342 0.259-0.566 0.665-0.566 1.126v0.567c0 0.010 0.005 0.018 0.006 0.028 0.001 0.008-0.002 0.015-0.001 0.023l0.249 1.368-2.238-1.566v-2.12c0-0.1-0.052-0.192-0.137-0.243l-1.417-0.85c-0.135-0.081-0.308-0.037-0.389 0.097s-0.037 0.308 0.097 0.389l1.28 0.768v2.107c0 0.092 0.045 0.179 0.121 0.232l2.828 1.98 0.059 0.325-2.278-0.253-1.060-1.591c-0.053-0.079-0.141-0.126-0.236-0.126h-1.984c-0.157 0-0.283 0.127-0.283 0.283s0.127 0.283 0.283 0.283h1.832l1.050 1.575c0.046 0.069 0.121 0.115 0.205 0.124l2.372 0.264-2.776 1.766c-0.063 0.040-0.107 0.103-0.124 0.175l-0.822 3.564-1.876 1.072c-0.136 0.078-0.183 0.251-0.105 0.387 0.052 0.092 0.148 0.143 0.246 0.143 0.048 0 0.096-0.012 0.14-0.037l1.984-1.134c0.069-0.039 0.118-0.105 0.136-0.182l0.824-3.572 1.217-0.774c-0.2 0.34-0.332 0.734-0.332 1.188 0.015 0.173 0.383 4.228 2.55 4.228s2.535-4.055 2.551-4.252c0-0.442-0.129-0.825-0.323-1.158l1.207 0.768 0.824 3.572c0.018 0.077 0.067 0.143 0.136 0.182l1.984 1.134c0.044 0.026 0.093 0.037 0.14 0.037 0.099 0 0.194-0.051 0.246-0.143 0.078-0.136 0.030-0.309-0.106-0.387z"></path>
</symbol>
<symbol id="icon-6" viewBox="0 0 32 32">
<path fill="#edf1fd" style="fill: var(--color1, #edf1fd)" d="M31.628 15.95c0 8.713-7.080 15.776-15.814 15.776s-15.814-7.063-15.814-15.776c0-8.713 7.080-15.776 15.814-15.776s15.814 7.063 15.814 15.776z"></path>
<path fill="#5d8bff" style="fill: var(--color2, #5d8bff)" d="M24.711 19.472l-1.769-2.654c-0.035-0.052-0.085-0.092-0.144-0.114l-3.158-1.148c-0.596-0.85-1.245-1.643-1.751-2.228l1.931-0.483c0.076-0.019 0.141-0.067 0.181-0.134l0.885-1.474c0.084-0.14 0.039-0.321-0.101-0.405s-0.321-0.039-0.405 0.101l-0.822 1.37-1.933 0.484c0.037-0.167 0.060-0.341 0.060-0.522 0-0.232-0.036-0.456-0.098-0.668 0.004-0.003 0.008-0.004 0.012-0.008l1.179-1.179c0.055-0.055 0.086-0.13 0.086-0.208v-0.885c0-0.163-0.132-0.295-0.295-0.295s-0.295 0.132-0.295 0.295v0.762l-0.946 0.946c-0.052-0.081-0.111-0.157-0.174-0.228 0.145-0.157 0.235-0.366 0.235-0.596 0-0.377-0.239-0.698-0.572-0.825 0.116-0.865 0.856-1.534 1.752-1.534 0.163 0 0.295-0.132 0.295-0.295s-0.132-0.295-0.295-0.295c-1.201 0-2.193 0.902-2.338 2.064h-0.63c-0.146-1.162-1.138-2.064-2.338-2.064-0.163 0-0.295 0.132-0.295 0.295s0.132 0.295 0.295 0.295c0.896 0 1.636 0.67 1.752 1.534-0.333 0.127-0.572 0.447-0.572 0.825 0 0.23 0.091 0.438 0.235 0.596-0.063 0.072-0.121 0.147-0.174 0.228l-0.946-0.946v-0.762c0-0.163-0.132-0.295-0.295-0.295s-0.295 0.132-0.295 0.295v0.885c0 0.078 0.031 0.153 0.086 0.208l1.179 1.179c0.004 0.004 0.008 0.004 0.011 0.008-0.062 0.212-0.098 0.436-0.098 0.668 0 0.18 0.022 0.355 0.060 0.522l-1.933-0.484-0.822-1.37c-0.084-0.139-0.265-0.185-0.405-0.101s-0.185 0.265-0.101 0.405l0.885 1.474c0.040 0.067 0.105 0.115 0.181 0.134l1.931 0.483c-0.504 0.584-1.152 1.376-1.747 2.227l-3.162 1.15c-0.059 0.022-0.11 0.061-0.144 0.114l-1.769 2.654c-0.090 0.136-0.054 0.319 0.082 0.409 0.050 0.034 0.107 0.050 0.163 0.050 0.095 0 0.189-0.046 0.246-0.131l1.715-2.573 2.324-0.845c-0.503 0.812-0.903 1.632-1.040 2.338-0.001 0.011-0.011 0.107-0.002 0.253 0.033 0.523 0.272 1.002 0.674 1.349 0.37 0.32 0.851 0.496 1.341 0.496 0.056 0 0.112-0.002 0.168-0.007 0.278-0.023 0.526-0.071 0.747-0.138-0.113 0.308-0.182 0.592-0.221 0.823-0.128 0.757-0.488 1.451-1.038 2.003-0.021 0.020-0.114 0.1-0.203 0.176-0.097 0.083-0.19 0.164-0.201 0.175-0.114 0.113-0.116 0.295-0.005 0.412 0.057 0.060 0.135 0.091 0.213 0.091 0.072 0 0.144-0.026 0.201-0.078 0.018-0.017 0.096-0.083 0.176-0.152 0.108-0.093 0.22-0.19 0.232-0.202 0.641-0.643 1.058-1.447 1.206-2.325 0.067-0.396 0.227-0.964 0.606-1.538 0.261 0.775 0.66 1.498 1.185 2.128 0.056 0.067 0.139 0.106 0.226 0.106s0.17-0.039 0.226-0.106c0.525-0.63 0.923-1.353 1.185-2.128 0.379 0.575 0.539 1.143 0.606 1.538 0.148 0.878 0.565 1.682 1.205 2.325 0.013 0.013 0.125 0.111 0.233 0.203 0.079 0.068 0.155 0.133 0.175 0.151 0.057 0.054 0.13 0.081 0.203 0.081 0.076 0 0.152-0.029 0.21-0.088 0.114-0.116 0.113-0.303-0.003-0.417-0.012-0.011-0.104-0.091-0.201-0.175-0.089-0.076-0.182-0.156-0.198-0.171-0.555-0.556-0.915-1.25-1.043-2.007-0.039-0.231-0.108-0.515-0.222-0.823 0.222 0.067 0.47 0.115 0.747 0.138 0.056 0.005 0.112 0.007 0.168 0.007 0.49 0 0.971-0.176 1.341-0.496 0.402-0.347 0.641-0.826 0.674-1.349 0.009-0.145-0.001-0.241-0.006-0.277-0.135-0.696-0.532-1.507-1.031-2.312l2.319 0.843 1.715 2.573c0.057 0.085 0.15 0.131 0.246 0.131 0.056 0 0.113-0.016 0.163-0.050 0.136-0.090 0.172-0.273 0.082-0.409zM15.443 14.252c0.151 0.049 0.308 0.077 0.472 0.077s0.321-0.028 0.472-0.077c0.014 0.307 0.039 0.631 0.071 0.962h-1.086c0.032-0.33 0.057-0.655 0.071-0.962zM15.309 15.803l1.212-0.001c0.035 0.298 0.074 0.595 0.116 0.885h-1.443c0.041-0.29 0.081-0.587 0.115-0.885zM15.106 17.277h1.619c0.049 0.317 0.099 0.615 0.146 0.885h-1.91c0.047-0.269 0.096-0.567 0.146-0.885zM15.915 21.516c-0.293-0.399-0.534-0.833-0.721-1.291h1.442c-0.187 0.458-0.428 0.892-0.721 1.291zM16.841 19.644c-0.014-0.002-0.027-0.008-0.041-0.008h-1.769c-0.014 0-0.027 0.006-0.041 0.008-0.070-0.236-0.126-0.477-0.167-0.722 0.010-0.053 0.021-0.111 0.032-0.171h2.121c0.011 0.060 0.022 0.117 0.032 0.171-0.041 0.245-0.097 0.486-0.167 0.722z"></path>
</symbol>
<symbol id="icon-7" viewBox="0 0 32 32">
<path fill="#edf1fd" style="fill: var(--color1, #edf1fd)" d="M31.628 15.95c0 8.713-7.080 15.776-15.814 15.776s-15.814-7.063-15.814-15.776c0-8.713 7.080-15.776 15.814-15.776s15.814 7.063 15.814 15.776z"></path>
<path fill="#5d8bff" style="fill: var(--color2, #5d8bff)" d="M24.078 16.315l-1.393-1.114c-0.050-0.040-0.111-0.061-0.174-0.061h-1.942c-0.451-0.672-0.892-1.26-1.27-1.733-0.666-0.835-1.528-1.469-2.513-1.864 0.022-0.013 0.044-0.027 0.065-0.041 0.028 0.009 0.058 0.017 0.089 0.017 0.008 0 0.017-0.001 0.026-0.001l2.028-0.184c0.724-0.066 1.427-0.314 2.032-0.717 0.563-0.375 1.037-0.884 1.373-1.471l0.634-1.11c0.077-0.134 0.030-0.304-0.104-0.38s-0.304-0.030-0.38 0.104l-0.634 1.11c-0.293 0.513-0.707 0.956-1.198 1.284-0.528 0.352-1.142 0.569-1.774 0.626l-1.565 0.142c0.077-0.16 0.12-0.334 0.12-0.516 0-0.013-0.002-0.026-0.003-0.039 0.481-0.124 0.838-0.557 0.838-1.075 0-0.615-0.5-1.114-1.114-1.114-0.154 0-0.279 0.125-0.279 0.279s0.125 0.279 0.279 0.279c0.307 0 0.557 0.25 0.557 0.557 0 0.263-0.184 0.482-0.429 0.541-0.263-0.482-0.845-0.819-1.521-0.819s-1.258 0.337-1.521 0.819c-0.245-0.059-0.429-0.278-0.429-0.541 0-0.307 0.25-0.557 0.557-0.557 0.154 0 0.279-0.125 0.279-0.279s-0.125-0.279-0.279-0.279c-0.615 0-1.114 0.5-1.114 1.114 0 0.518 0.358 0.952 0.838 1.075-0.001 0.013-0.003 0.026-0.003 0.039 0 0.182 0.043 0.356 0.12 0.516l-1.566-0.142c-0.632-0.057-1.245-0.274-1.774-0.626-0.491-0.327-0.905-0.771-1.198-1.284l-0.634-1.11c-0.076-0.134-0.247-0.18-0.38-0.104s-0.18 0.246-0.104 0.38l0.634 1.11c0.336 0.587 0.81 1.096 1.373 1.471 0.605 0.403 1.308 0.651 2.032 0.717l2.028 0.184c0.009 0.001 0.017 0.001 0.026 0.001 0.031 0 0.060-0.007 0.089-0.017 0.021 0.014 0.043 0.028 0.065 0.041-0.986 0.396-1.847 1.030-2.514 1.864-0.378 0.474-0.82 1.061-1.27 1.733h-1.942c-0.064 0-0.125 0.021-0.174 0.061l-1.393 1.114c-0.12 0.096-0.14 0.271-0.043 0.391 0.055 0.069 0.136 0.105 0.218 0.105 0.061 0 0.122-0.020 0.174-0.061l1.317-1.053h1.483c-1.233 1.954-2.417 4.479-2.417 6.966 0 0.037 0.013 0.91 0.707 1.387 0.567 0.391 1.394 0.386 2.469-0.019 0.121-0.053 2.656-1.166 4.068-2.571v-9.686c0.091 0.013 0.184 0.021 0.279 0.021s0.188-0.008 0.279-0.021v9.686c1.411 1.404 3.948 2.518 4.081 2.576 0.537 0.202 1.014 0.303 1.428 0.303 0.405 0 0.748-0.097 1.029-0.29 0.694-0.477 0.706-1.35 0.707-1.389 0-2.487-1.184-5.011-2.417-6.965h1.483l1.317 1.053c0.052 0.041 0.113 0.061 0.174 0.061 0.082 0 0.163-0.036 0.218-0.105 0.096-0.12 0.077-0.295-0.043-0.391zM14.395 15.835l-1.408 2.464 0.764 0.509c0.128 0.085 0.163 0.258 0.077 0.386-0.053 0.081-0.142 0.124-0.232 0.124-0.053 0-0.107-0.015-0.154-0.047l-0.732-0.488-1.658 2.902c-0.051 0.090-0.145 0.14-0.242 0.14-0.047 0-0.094-0.012-0.138-0.037-0.134-0.076-0.18-0.247-0.104-0.38l0.486-0.85-0.677-0.451c-0.128-0.085-0.163-0.259-0.077-0.386s0.258-0.163 0.386-0.077l0.645 0.43 1.952-3.415-0.677-0.451c-0.128-0.085-0.163-0.259-0.077-0.386s0.258-0.163 0.386-0.077l0.645 0.43 0.352-0.615c0.076-0.134 0.246-0.18 0.38-0.104s0.18 0.246 0.104 0.38zM20.963 19.644c0.128-0.086 0.301-0.051 0.386 0.077s0.051 0.301-0.077 0.386l-0.677 0.451 0.486 0.85c0.077 0.133 0.030 0.304-0.104 0.38-0.043 0.025-0.091 0.037-0.138 0.037-0.097 0-0.191-0.050-0.242-0.14l-1.658-2.902-0.732 0.488c-0.048 0.031-0.101 0.047-0.154 0.047-0.090 0-0.179-0.044-0.232-0.124-0.086-0.128-0.051-0.301 0.077-0.386l0.764-0.509-1.408-2.464c-0.077-0.134-0.030-0.304 0.104-0.38s0.304-0.030 0.38 0.104l0.352 0.615 0.645-0.43c0.128-0.086 0.301-0.051 0.386 0.077s0.051 0.301-0.077 0.386l-0.677 0.451 1.952 3.415 0.645-0.43z"></path>
</symbol>
<symbol id="icon-8" viewBox="0 0 32 32">
<path fill="#edf1fd" style="fill: var(--color1, #edf1fd)" d="M31.628 15.95c0 8.713-7.080 15.776-15.814 15.776s-15.814-7.063-15.814-15.776c0-8.713 7.080-15.776 15.814-15.776s15.814 7.063 15.814 15.776z"></path>
<path fill="#5d8bff" style="fill: var(--color2, #5d8bff)" d="M14.246 10.407c-0.616 0-1.116-0.501-1.116-1.116s0.501-1.116 1.116-1.116c0.154 0 0.279 0.125 0.279 0.279s-0.125 0.279-0.279 0.279c-0.308 0-0.558 0.25-0.558 0.558s0.25 0.558 0.558 0.558c0.154 0 0.279 0.125 0.279 0.279s-0.125 0.279-0.279 0.279z"></path>
<path fill="#5d8bff" style="fill: var(--color2, #5d8bff)" d="M17.037 10.407c-0.154 0-0.279-0.125-0.279-0.279s0.125-0.279 0.279-0.279c0.308 0 0.558-0.25 0.558-0.558s-0.25-0.558-0.558-0.558c-0.154 0-0.279-0.125-0.279-0.279s0.125-0.279 0.279-0.279c0.616 0 1.116 0.501 1.116 1.116s-0.501 1.116-1.116 1.116z"></path>
<path fill="#5d8bff" style="fill: var(--color2, #5d8bff)" d="M12.851 12.361c-0.037 0-0.074-0.007-0.11-0.023l-1.954-0.837c-0.103-0.044-0.169-0.145-0.169-0.256v-3.070h-1.674c-0.154 0-0.279-0.125-0.279-0.279s0.125-0.279 0.279-0.279h1.954c0.154 0 0.279 0.125 0.279 0.279v3.165l1.784 0.765c0.141 0.061 0.207 0.225 0.146 0.366-0.045 0.105-0.148 0.169-0.256 0.169z"></path>
<path fill="#5d8bff" style="fill: var(--color2, #5d8bff)" d="M18.712 12.361c-0.108 0-0.211-0.064-0.256-0.169-0.061-0.142 0.005-0.306 0.147-0.366l1.784-0.765v-3.165c0-0.154 0.125-0.279 0.279-0.279h1.954c0.154 0 0.279 0.125 0.279 0.279s-0.125 0.279-0.279 0.279h-1.674v3.070c0 0.111-0.066 0.212-0.169 0.256l-1.954 0.837c-0.036 0.016-0.073 0.023-0.11 0.023z"></path>
<path fill="#5d8bff" style="fill: var(--color2, #5d8bff)" d="M8.107 16.826c-0.099 0-0.196-0.053-0.246-0.147-0.073-0.136-0.022-0.305 0.114-0.378l3.628-1.954c0.136-0.073 0.305-0.022 0.378 0.113s0.022 0.305-0.114 0.378l-3.628 1.954c-0.042 0.023-0.087 0.034-0.132 0.034z"></path>
<path fill="#5d8bff" style="fill: var(--color2, #5d8bff)" d="M10.339 24.361c-0.047 0-0.095-0.012-0.138-0.037-0.134-0.076-0.181-0.247-0.104-0.381l1.045-1.83-1.336-2.94c-0.052-0.114-0.021-0.25 0.075-0.33l1.674-1.395c0.119-0.099 0.294-0.083 0.393 0.036s0.082 0.294-0.036 0.393l-1.511 1.259 1.307 2.876c0.037 0.082 0.033 0.176-0.012 0.254l-1.116 1.953c-0.051 0.090-0.145 0.141-0.243 0.141z"></path>
<path fill="#5d8bff" style="fill: var(--color2, #5d8bff)" d="M23.176 16.826c-0.045 0-0.090-0.011-0.132-0.034l-3.628-1.954c-0.136-0.073-0.187-0.242-0.114-0.378s0.242-0.187 0.378-0.113l3.628 1.953c0.136 0.073 0.187 0.242 0.114 0.378-0.051 0.094-0.147 0.147-0.246 0.147z"></path>
<path fill="#5d8bff" style="fill: var(--color2, #5d8bff)" d="M20.945 24.361c-0.097 0-0.191-0.051-0.242-0.141l-1.116-1.953c-0.044-0.078-0.049-0.172-0.012-0.254l1.307-2.876-1.511-1.259c-0.118-0.099-0.134-0.275-0.036-0.393s0.275-0.134 0.393-0.036l1.674 1.395c0.096 0.080 0.127 0.215 0.075 0.33l-1.336 2.94 1.045 1.83c0.077 0.134 0.030 0.304-0.104 0.381-0.044 0.025-0.091 0.037-0.138 0.037z"></path>
<path fill="#5d8bff" style="fill: var(--color2, #5d8bff)" d="M15.642 22.965c-2.466 0-4.465-1.999-4.465-4.465v-5.023h8.93v5.023c-0 2.466-1.999 4.465-4.465 4.465z"></path>
<path fill="#5d8bff" style="fill: var(--color2, #5d8bff)" d="M18.991 13.477h-6.698v-0.558c0-1.849 1.499-3.349 3.349-3.349s3.349 1.499 3.349 3.349v0.558z"></path>
<path fill="#fff" style="fill: var(--color3, #fff)" d="M11.177 14.38v0.651l4.462 2.677 4.469-2.553v-0.643l-4.462 2.549-4.469-2.681z"></path>
<path fill="#fff" style="fill: var(--color3, #fff)" d="M15.363 22.951c0.093 0.006 0.185 0.014 0.279 0.014s0.186-0.008 0.279-0.014v-5.568h-0.558l0 5.568z"></path>
</symbol>
<symbol id="icon-vector" viewBox="0 0 16 32">
<path fill="#fff" style="fill: var(--color1, #fff)" d="M16 28.527l-3.553 3.352-12.434-15.084 12.434-15.084 3.553 3.352-10.658 11.732 10.658 11.732z"></path>
</symbol>
<symbol id="icon-vector-2" viewBox="0 0 18 32">
<path fill="#fff" style="fill: var(--color1, #fff)" d="M1.237 5.212l3.553-3.333 12.434 15-12.434 15-3.553-3.333 10.658-11.667-10.658-11.667z"></path>
</symbol>
</defs>
</svg>
